<svg width="23" height="23" viewBox="0 0 23 23" fill="none" xmlns="http://www.w3.org/2000/svg">
<path d="M19.1187 20.125C17.0583 20.125 15.05 19.6698 13.0937 18.7594C11.1368 17.849 9.40381 16.6351 7.89475 15.1177C6.38506 13.6003 5.17117 11.8632 4.25308 9.90629C3.33436 7.95001 2.875 5.94167 2.875 3.88125V3.37813C2.875 3.20243 2.89097 3.03472 2.92292 2.875H8.52917L9.41562 7.69062L6.68437 10.4458C7.35521 11.5958 8.1979 12.674 9.21246 13.6802C10.2264 14.6865 11.3403 15.5569 12.5542 16.2917L15.3333 13.5125L20.125 14.4708V20.0771C19.9653 20.0931 19.7976 20.1052 19.6219 20.1135C19.4462 20.1212 19.2785 20.125 19.1187 20.125Z" fill="black"/>
</svg>
