<svg width="25" height="26" viewBox="0 0 25 26" fill="none" xmlns="http://www.w3.org/2000/svg">
<path fill-rule="evenodd" clip-rule="evenodd" d="M13.1036 1.14623L15.4676 3.50969H21.5C23.1569 3.50969 24.5 4.85283 24.5 6.50969V21.5097C24.5 23.1665 23.1569 24.5097 21.5 24.5097H4C2.34315 24.5097 1 23.1665 1 21.5097V6.50969C1 4.85283 2.34315 3.50969 4 3.50969H10.03L12.3962 1.14607C12.5918 0.951247 12.9082 0.951318 13.1036 1.14623ZM12.7495 2.91333L10.9437 4.71719C10.7562 4.90448 10.502 5.00969 10.2369 5.00969H4C3.17157 5.00969 2.5 5.68126 2.5 6.50969V21.5097C2.5 22.3381 3.17157 23.0097 4 23.0097H5C5 20.2483 7.23858 18.0097 10 18.0097H15.5C18.2614 18.0097 20.5 20.2483 20.5 23.0097H21.5C22.3284 23.0097 23 22.3381 23 21.5097V6.50969C23 5.68126 22.3284 5.00969 21.5 5.00969H15.2605C14.9953 5.00969 14.741 4.90436 14.5534 4.71687L12.7495 2.91333ZM15.5 19.5097C17.433 19.5097 19 21.0767 19 23.0097H6.5C6.5 21.0767 8.067 19.5097 10 19.5097H15.5ZM12.75 7.00969C15.3734 7.00969 17.5 9.13633 17.5 11.7597C17.5 14.383 15.3734 16.5097 12.75 16.5097C10.1266 16.5097 8 14.383 8 11.7597C8 9.13633 10.1266 7.00969 12.75 7.00969ZM9.5 11.7597C9.5 9.96476 10.9551 8.50969 12.75 8.50969C14.5449 8.50969 16 9.96476 16 11.7597C16 13.5546 14.5449 15.0097 12.75 15.0097C10.9551 15.0097 9.5 13.5546 9.5 11.7597Z" fill="#262626" fill-opacity="1"/>
<path d="M15.4676 3.50969L15.114 3.86328L15.2605 4.00969H15.4676V3.50969ZM13.1036 1.14623L13.4571 0.792641L13.4567 0.792216L13.1036 1.14623ZM10.03 3.50969V4.00969H10.2369L10.3834 3.86344L10.03 3.50969ZM12.3962 1.14607L12.0433 0.791897L12.0429 0.792323L12.3962 1.14607ZM10.9437 4.71719L10.5903 4.36344L10.5903 4.36344L10.9437 4.71719ZM12.7495 2.91333L13.103 2.55974L12.7497 2.20646L12.3962 2.55958L12.7495 2.91333ZM5 23.0097V23.5097H5.5V23.0097H5ZM20.5 23.0097H20V23.5097H20.5V23.0097ZM14.5534 4.71687L14.1999 5.07046L14.1999 5.07046L14.5534 4.71687ZM19 23.0097V23.5097H19.5V23.0097H19ZM6.5 23.0097H6V23.5097H6.5V23.0097ZM15.8211 3.15609L13.4571 0.792641L12.7501 1.49982L15.114 3.86328L15.8211 3.15609ZM21.5 3.00969H15.4676V4.00969H21.5V3.00969ZM25 6.50969C25 4.57669 23.433 3.00969 21.5 3.00969V4.00969C22.8807 4.00969 24 5.12897 24 6.50969H25ZM25 21.5097V6.50969H24V21.5097H25ZM21.5 25.0097C23.433 25.0097 25 23.4427 25 21.5097H24C24 22.8904 22.8807 24.0097 21.5 24.0097V25.0097ZM4 25.0097H21.5V24.0097H4V25.0097ZM0.5 21.5097C0.5 23.4427 2.067 25.0097 4 25.0097V24.0097C2.61929 24.0097 1.5 22.8904 1.5 21.5097H0.5ZM0.5 6.50969V21.5097H1.5V6.50969H0.5ZM4 3.00969C2.067 3.00969 0.5 4.57669 0.5 6.50969H1.5C1.5 5.12897 2.61929 4.00969 4 4.00969V3.00969ZM10.03 3.00969H4V4.00969H10.03V3.00969ZM12.0429 0.792323L9.67664 3.15594L10.3834 3.86344L12.7496 1.49982L12.0429 0.792323ZM13.4567 0.792216C13.0662 0.402719 12.434 0.402577 12.0433 0.791898L12.7492 1.50025C12.7499 1.49954 12.7498 1.4998 12.7492 1.50004C12.749 1.50014 12.7492 1.5 12.7498 1.5C12.7505 1.5 12.7507 1.50014 12.7505 1.50004C12.7499 1.4998 12.7498 1.49954 12.7505 1.50025L13.4567 0.792216ZM11.297 5.07094L13.1029 3.26708L12.3962 2.55958L10.5903 4.36344L11.297 5.07094ZM10.2369 5.50969C10.6345 5.50969 11.0158 5.35188 11.297 5.07094L10.5903 4.36344C10.4965 4.45708 10.3695 4.50969 10.2369 4.50969V5.50969ZM4 5.50969H10.2369V4.50969H4V5.50969ZM3 6.50969C3 5.9574 3.44772 5.50969 4 5.50969V4.50969C2.89543 4.50969 2 5.40512 2 6.50969H3ZM3 21.5097V6.50969H2V21.5097H3ZM4 22.5097C3.44772 22.5097 3 22.062 3 21.5097H2C2 22.6143 2.89543 23.5097 4 23.5097V22.5097ZM5 22.5097H4V23.5097H5V22.5097ZM10 17.5097C6.96243 17.5097 4.5 19.9721 4.5 23.0097H5.5C5.5 20.5244 7.51472 18.5097 10 18.5097V17.5097ZM15.5 17.5097H10V18.5097H15.5V17.5097ZM21 23.0097C21 19.9721 18.5376 17.5097 15.5 17.5097V18.5097C17.9853 18.5097 20 20.5244 20 23.0097H21ZM21.5 22.5097H20.5V23.5097H21.5V22.5097ZM22.5 21.5097C22.5 22.062 22.0523 22.5097 21.5 22.5097V23.5097C22.6046 23.5097 23.5 22.6143 23.5 21.5097H22.5ZM22.5 6.50969V21.5097H23.5V6.50969H22.5ZM21.5 5.50969C22.0523 5.50969 22.5 5.9574 22.5 6.50969H23.5C23.5 5.40512 22.6046 4.50969 21.5 4.50969V5.50969ZM15.2605 5.50969H21.5V4.50969H15.2605V5.50969ZM14.1999 5.07046C14.4812 5.35169 14.8627 5.50969 15.2605 5.50969V4.50969C15.1279 4.50969 15.0007 4.45702 14.907 4.36328L14.1999 5.07046ZM12.396 3.26692L14.1999 5.07046L14.907 4.36328L13.103 2.55974L12.396 3.26692ZM19.5 23.0097C19.5 20.8005 17.7091 19.0097 15.5 19.0097V20.0097C17.1569 20.0097 18.5 21.3528 18.5 23.0097H19.5ZM6.5 23.5097H19V22.5097H6.5V23.5097ZM10 19.0097C7.79086 19.0097 6 20.8005 6 23.0097H7C7 21.3528 8.34315 20.0097 10 20.0097V19.0097ZM15.5 19.0097H10V20.0097H15.5V19.0097ZM18 11.7597C18 8.86019 15.6495 6.50969 12.75 6.50969V7.50969C15.0972 7.50969 17 9.41248 17 11.7597H18ZM12.75 17.0097C15.6495 17.0097 18 14.6592 18 11.7597H17C17 14.1069 15.0972 16.0097 12.75 16.0097V17.0097ZM7.5 11.7597C7.5 14.6592 9.85051 17.0097 12.75 17.0097V16.0097C10.4028 16.0097 8.5 14.1069 8.5 11.7597H7.5ZM12.75 6.50969C9.85051 6.50969 7.5 8.86019 7.5 11.7597H8.5C8.5 9.41248 10.4028 7.50969 12.75 7.50969V6.50969ZM12.75 8.00969C10.6789 8.00969 9 9.68862 9 11.7597H10C10 10.2409 11.2312 9.00969 12.75 9.00969V8.00969ZM16.5 11.7597C16.5 9.68862 14.8211 8.00969 12.75 8.00969V9.00969C14.2688 9.00969 15.5 10.2409 15.5 11.7597H16.5ZM12.75 15.5097C14.8211 15.5097 16.5 13.8308 16.5 11.7597H15.5C15.5 13.2785 14.2688 14.5097 12.75 14.5097V15.5097ZM9 11.7597C9 13.8308 10.6789 15.5097 12.75 15.5097V14.5097C11.2312 14.5097 10 13.2785 10 11.7597H9Z" fill="#666666"/>
</svg>
